# xmcd
#
# Track frame offsets:
#	150
#	15006
#	59076
#	77535
#	99850
#	113645
#	136833
#	155667
#	176567
#	199747
#	211453
#	237258
#	263066
#	284239
#	297834
#	319067
#
# Disc length: 4517 seconds
#
# Revision: 0
# Processed by: cddbd v1.5.2PL0 Copyright (c) Steve Scherf et al.
# Submitted via: EZCDAudioConverter 1.0.8.1
#
DISCID=df11a310
DTITLE=Various Artist - Divas of Gospel
DYEAR=2007
DGENRE=Gospel
TTITLE0=Albertina Walker and The Caravans - It pays to serve Jesus
TTITLE1=Yolanda Adams - Hallelujah
TTITLE2=Inez Andrews - Lord Jesus
TTITLE3=Cassietta George - Guess Who
TTITLE4=Aretha Franklin - The Blood runs warm in my veins
TTITLE5=Meditation Singers - One more river to cross
TTITLE6=Dorothy Norwood - You Never Have to Walk Alone
TTITLE7=Mahalia Jackson - Down by the Riverside
TTITLE8=Sister Rosetta Tharpe - Gospel Train
TTITLE9=Albertina Wlker - I know Who Holds Tomorrow
TTITLE10=Aretha Franklin - This Little Light of Mine
TTITLE11=Yolanda Adams - Holy Spirit
TTITLE12=Fontella Bass - My God, My Freedom, My Home
TTITLE13=Mahalia Jackson - Move Up a Little Higher
TTITLE14=Inez Andrews - Jehovah is his name
TTITLE15=Dorothy Norwood - Heaven Help Us All
EXTD=
EXTT0=
EXTT1=
EXTT2=
EXTT3=
EXTT4=
EXTT5=
EXTT6=
EXTT7=
EXTT8=
EXTT9=
EXTT10=
EXTT11=
EXTT12=
EXTT13=
EXTT14=
EXTT15=
PLAYORDER=
